<svg xmlns="http://www.w3.org/2000/svg">
    <symbol id="menu-star" viewBox="0 0 22 22" fill="inherit">
        <path d="M11 0.441406L10.3086 2.08203L7.92969 7.73047L0.488281 8.53906L6.05469 13.7891L4.47266 21.5352L11 17.5625L17.5215 21.5352L15.9453 13.7891L21.5059 8.53906L14.0703 7.73047L11 0.441406ZM11 4.30273L13.0332 9.125L18.1191 9.67578L14.3105 13.2734L15.3652 18.4648L11 15.8047L6.6289 18.4648L7.68945 13.2734L3.88671 9.67578L8.96679 9.125L11 4.30273Z" fill="inherit"/>
    </symbol>
    <symbol id="menu-cup" xmlns="http://www.w3.org/2000/svg" viewBox="0 0 20 20" fill="inherit">
        <path d="M3.24023 0.240234C1.59375 0.240234 0.240234 1.59375 0.240234 3.24023C0.240234 4.05469 0.609376 4.76953 1.06641 5.4668C1.52344 6.16406 2.09766 6.85547 2.6543 7.55273C3.76758 8.94727 4.74023 10.3652 4.74023 11.4902C4.74023 11.9121 4.41211 12.2402 3.99023 12.2402H3.24023V13.7402H3.99023C4.76953 13.7402 5.4668 13.3301 5.86523 12.7207C5.88281 12.7617 5.88867 12.8145 5.90039 12.8496C6.30469 14.0508 6.80859 14.9941 7.49414 15.6797C7.98633 16.1719 8.58984 16.5059 9.24023 16.6523V18.2402H6.24023V19.7402H13.7402V18.2402H10.7402V16.6523C11.3906 16.5059 11.9941 16.1719 12.4863 15.6797C13.1719 14.9941 13.6758 14.0508 14.0742 12.8496C14.0918 12.8145 14.0977 12.7617 14.1152 12.7207C14.5137 13.3301 15.2109 13.7402 15.9902 13.7402H16.7402V12.2402H15.9902C15.5684 12.2402 15.2402 11.9121 15.2402 11.4902C15.2402 10.3652 16.2129 8.94727 17.3262 7.55273C17.8828 6.85547 18.457 6.16406 18.9141 5.4668C19.3711 4.76953 19.7402 4.05469 19.7402 3.24023C19.7402 1.59375 18.3867 0.240234 16.7402 0.240234C15.6387 0.240234 14.6836 0.84961 14.1621 1.74023H5.81836C5.29687 0.84961 4.34179 0.240234 3.24023 0.240234H3.24023ZM3.24023 1.74023C4.07812 1.74023 4.74023 2.40234 4.74023 3.24023H4.75781C4.77539 5.07422 4.85156 6.73242 4.99805 8.19141C4.62891 7.64648 4.22461 7.11328 3.82617 6.61523C3.25781 5.90625 2.70703 5.23828 2.32031 4.64649C1.93359 4.05469 1.74023 3.55078 1.74023 3.24024C1.74023 2.40235 2.40234 1.74024 3.24023 1.74024V1.74023ZM16.7402 1.74023C17.5781 1.74023 18.2402 2.40234 18.2402 3.24023C18.2402 3.55078 18.0469 4.05469 17.6602 4.64648C17.2734 5.23828 16.7227 5.90625 16.1543 6.61523C15.7559 7.11328 15.3516 7.64648 14.9824 8.19141C15.1289 6.73242 15.2051 5.07422 15.2227 3.24023H15.2402C15.2402 2.40234 15.9023 1.74023 16.7402 1.74023V1.74023ZM6.32227 3.24023H13.6582C13.6055 7.20117 13.3008 10.4297 12.6504 12.3809C12.3047 13.4297 11.8711 14.1738 11.4316 14.6133C10.9863 15.0586 10.5527 15.2402 9.99024 15.2402C9.42774 15.2402 8.99414 15.0586 8.54883 14.6133C8.10938 14.1738 7.67578 13.4297 7.33008 12.3809C6.67969 10.4297 6.375 7.20117 6.32227 3.24023H6.32227ZM9.24023 4.74023V10.7402H10.7402V4.74023H9.24023Z" fill="inherit"/>
    </symbol>
    <symbol id="menu-gift" xmlns="http://www.w3.org/2000/svg" viewBox="0 0 20 19" fill="inherit">
        <path d="M6.99023 0.0390626C6.4127 0.0392395 5.83537 0.256423 5.39941 0.692383C4.52704 1.56476 4.52704 3.00165 5.39941 3.87402C5.70301 4.17762 6.03061 4.33057 6.44531 4.5332H2.49023C1.34068 4.5332 0.240234 5.30457 0.240234 6.47266V16.0938C0.240234 17.2622 1.34232 18.0311 2.49023 18.0332H17.4902C18.6398 18.0332 19.7402 17.2618 19.7402 16.0938V6.47266C19.7402 5.30424 18.6389 4.5332 17.4902 4.5332H13.5352C13.9499 4.33057 14.2775 4.17762 14.5811 3.87402C15.4553 3.00202 15.4553 1.56439 14.5811 0.692383C14.1449 0.256195 13.5676 0.0390626 12.9902 0.0390626C12.4129 0.0390626 11.8356 0.256195 11.3994 0.692383C11.1071 0.9847 10.9342 1.31026 10.6963 1.73828C10.4643 2.15567 10.2182 2.64203 9.99023 3.10938C9.76223 2.64203 9.51617 2.15567 9.28418 1.73828C9.04627 1.31026 8.87337 0.9847 8.58105 0.692383C8.14483 0.255036 7.56777 0.0388858 6.99023 0.0390626H6.99023ZM6.99023 1.53027C7.18092 1.53025 7.37174 1.60378 7.52051 1.75293C7.52069 1.75311 7.75886 2.07961 7.97461 2.46777C8.19036 2.85594 8.43437 3.33702 8.66016 3.80078C8.68477 3.85133 8.68289 3.84745 8.70703 3.89746C8.63276 3.86701 8.63602 3.87322 8.56054 3.8418C8.0746 3.63946 7.57387 3.41832 7.17187 3.2207C6.76987 3.02309 6.43181 2.78533 6.45996 2.81348C6.16233 2.51585 6.16233 2.05055 6.45996 1.75293C6.609 1.60389 6.79955 1.5303 6.99023 1.53027L6.99023 1.53027ZM12.9902 1.53027C13.181 1.53027 13.3717 1.60412 13.5205 1.75293C13.8193 2.05092 13.8193 2.51548 13.5205 2.81348C13.5487 2.78533 13.2106 3.02309 12.8086 3.2207C12.4066 3.41832 11.9059 3.63946 11.4199 3.8418C11.3444 3.87322 11.3477 3.86701 11.2734 3.89746C11.2976 3.84745 11.2957 3.85133 11.3203 3.80078C11.5461 3.33702 11.7901 2.85594 12.0059 2.46778C12.2216 2.07961 12.4598 1.75311 12.46 1.75293C12.6088 1.60412 12.7995 1.53028 12.9902 1.53028L12.9902 1.53027ZM2.49023 6.0332H9.24023V10.5332H1.74023V6.47266C1.74023 6.32974 1.98379 6.0332 2.49023 6.0332ZM10.7402 6.0332H17.4902C17.9976 6.0332 18.2402 6.32707 18.2402 6.47266V10.5332H10.7402V6.0332ZM1.74023 12.0332H9.24023V16.5332H2.49023C1.98215 16.5323 1.74023 16.2393 1.74023 16.0938V12.0332ZM10.7402 12.0332H18.2402V16.0938C18.2402 16.2367 17.9967 16.5332 17.4902 16.5332H10.7402V12.0332Z" fill="inherit"/>
    </symbol>
    <symbol id="menu-fire" xmlns="http://www.w3.org/2000/svg" viewBox="0 0 16 21" fill="inherit">
        <path d="M8 0.5C7.82398 0.499972 7.65355 0.561851 7.51855 0.674804C7.51855 0.674804 5.65475 2.23277 3.79297 4.52051C1.93119 6.80825 0 9.83979 0 13C0 17.2719 3.37296 20.7652 7.59277 20.9795C7.72682 20.9932 7.86248 21 8 21C8.13752 21 8.27318 20.9932 8.40723 20.9795C12.627 20.7652 16 17.2719 16 13C16 9.62151 13.8004 6.38908 11.8223 4.05859C11.6188 3.81852 11.2871 3.731 10.9916 3.83944C10.6962 3.94789 10.4998 4.22923 10.5 4.54394V6.75C10.5 7.17325 10.1732 7.5 9.75 7.5C9.32675 7.5 9 7.17325 9 6.75V1.46777C8.99996 1.25302 8.90788 1.04859 8.74707 0.90625C8.58434 0.762117 8.4834 0.676758 8.4834 0.676758C8.34816 0.562668 8.17694 0.50006 8 0.5H8ZM7.5 2.72363V6.75C7.5 7.98375 8.51625 9 9.75 9C10.9838 9 12 7.98375 12 6.75V6.74023C13.3691 8.6826 14.5 10.9444 14.5 13C14.5 15.1834 13.428 17.1054 11.7842 18.2832C11.922 17.8797 12 17.4487 12 17C12 15.3295 11.0849 13.8006 10.2275 12.6465C9.37018 11.4923 8.50879 10.6992 8.50879 10.6992C8.35986 10.5615 8.16152 10.49 7.95899 10.501C7.78475 10.5106 7.61933 10.5807 7.49121 10.6992C7.49121 10.6992 6.62982 11.4923 5.77246 12.6465C4.9151 13.8006 4 15.3295 4 17C4 17.4487 4.07799 17.8797 4.21582 18.2832C2.57203 17.1054 1.5 15.1834 1.5 13C1.5 10.4777 3.19381 7.63441 4.95703 5.46777C5.93492 4.26616 6.82339 3.36634 7.5 2.72363L7.5 2.72363ZM8 12.3789C8.28295 12.6644 8.50986 12.851 9.02246 13.541C9.7901 14.5744 10.5 15.9205 10.5 17C10.5 18.3025 9.52441 19.3598 8.25781 19.4873C8.17303 19.4958 8.08719 19.5 8 19.5C7.91314 19.5 7.82763 19.4958 7.74316 19.4873C7.74284 19.4873 7.74251 19.4873 7.74219 19.4873C6.47559 19.3598 5.5 18.3025 5.5 17C5.5 15.9205 6.20989 14.5744 6.97754 13.541C7.49014 12.851 7.71705 12.6644 8 12.3789H8Z" fill="inherit"/>
    </symbol>
    <symbol id="menu-rocket" xmlns="http://www.w3.org/2000/svg" viewBox="0 0 21 20" fill="inherit">
        <path d="M17.7559 0.00586205C14.627 0.00586205 12.2422 0.78516 10.8887 2.36133L10.8828 2.36719L7.84179 6.00586H7.25586C5.11719 6.00586 3.56445 6.39844 2.53906 6.80274C1.50781 7.20703 0.951171 7.67578 0.951171 7.67578L0.347656 8.20313L11.5508 19.6055L12.0781 19.1016C12.0781 19.1016 12.623 18.5684 13.0918 17.5488C13.5605 16.5234 14.0059 14.959 14.0059 12.7559V12.1582L17.6445 9.12305L17.6504 9.11719C19.2266 7.76953 20.0059 5.38477 20.0059 2.25586V0.00585938L17.7559 0.00586205ZM17.7559 1.50586H18.5059V2.25586C18.5059 5.12696 17.7559 7.05469 16.6719 7.98047L8.79688 14.543L5.45703 11.2031L12.0312 3.32813C12.9629 2.25 14.8906 1.50586 17.7559 1.50586ZM15.5059 3.00586C14.6797 3.00586 14.0059 3.67969 14.0059 4.50586C14.0059 5.33204 14.6797 6.00586 15.5059 6.00586C16.332 6.00586 17.0059 5.33204 17.0059 4.50586C17.0059 3.67969 16.332 3.00586 15.5059 3.00586ZM6.56445 7.53516L4.36719 10.1602L2.66797 8.42578C2.84375 8.32617 2.77344 8.32031 3.08984 8.19727C3.83398 7.9043 4.98828 7.61133 6.56445 7.53516ZM12.4766 13.4297C12.3945 15.0469 12.0605 16.1953 11.7266 16.9219C11.5742 17.2617 11.5625 17.1973 11.4512 17.3672L9.78125 15.6738L12.4766 13.4297ZM3.50586 13.4941L0.505858 19.4941L6.50586 16.4941L3.50586 13.4941Z" fill="inherit"/>
    </symbol>
    <symbol id="menu-events" xmlns="http://www.w3.org/2000/svg" viewBox="0 0 20 20" fill="inherit">
        <path d="M3.5 0.5V2H2.75C1.51367 2 0.5 3.01367 0.5 4.25V17.75C0.5 18.9863 1.51367 20 2.75 20H17.75C18.9863 20 20 18.9863 20 17.75V4.25C20 3.01367 18.9863 2 17.75 2H17V0.5H15.5V2H5V0.5H3.5ZM2.75 3.5H3.5V5H5V3.5H15.5V5H17V3.5H17.75C18.1719 3.5 18.5 3.82812 18.5 4.25V6.5H2V4.25C2 3.82812 2.32812 3.5 2.75 3.5ZM2 8H18.5V17.75C18.5 18.1719 18.1719 18.5 17.75 18.5H2.75C2.32812 18.5 2 18.1719 2 17.75V8ZM6.5 9.5V11H8V9.5H6.5ZM9.5 9.5V11H11V9.5H9.5ZM12.5 9.5V11H14V9.5H12.5ZM15.5 9.5V11H17V9.5H15.5ZM3.5 12.5V14H5V12.5H3.5ZM6.5 12.5V14H8V12.5H6.5ZM9.5 12.5V14H11V12.5H9.5ZM12.5 12.5V14H14V12.5H12.5ZM15.5 12.5V14H17V12.5H15.5ZM3.5 15.5V17H5V15.5H3.5ZM6.5 15.5V17H8V15.5H6.5ZM9.5 15.5V17H11V15.5H9.5Z" fill="inherit"/>
    </symbol>
    <symbol id="menu-ball" xmlns="http://www.w3.org/2000/svg" viewBox="0 0 20 20" fill="inherit">
        <path d="M10 0C4.48603 0 0 4.48604 0 10C0 15.514 4.48603 20 10 20C15.514 20 20 15.514 20 10C20 4.48604 15.514 0 10 0ZM10 1.5C10.7671 1.5 11.5066 1.61035 12.2129 1.7998L10 3.38477L7.78711 1.7998C8.49344 1.61035 9.2329 1.5 10 1.5ZM6.625 2.19727L9.5 4.25684V6.26074L6.44043 8.45313L4.40723 7.77539L3.38184 4.66504C4.24098 3.59973 5.35085 2.74753 6.625 2.19727ZM13.375 2.19727C14.6491 2.74753 15.759 3.59973 16.6182 4.66504L15.5928 7.77539L13.5596 8.45313L10.5 6.26074V4.25684L13.375 2.19727ZM2.67188 5.70215L3.41016 7.94336L1.53613 9.28613C1.64412 7.9842 2.04546 6.76989 2.67187 5.70215H2.67188ZM17.3281 5.70215C17.9545 6.76989 18.3559 7.9842 18.4639 9.28613L16.5898 7.94336L17.3281 5.70215ZM10 7.13281L12.9102 9.21777L11.8018 12.5801H8.19824L7.08984 9.21777L10 7.13281ZM4.05371 8.71191L6.09473 9.39258L7.28906 13.0137L6.14844 14.4707L2.78906 14.4912C2.06359 13.327 1.61453 11.976 1.52637 10.5225L4.05371 8.71191ZM15.9453 8.71191L18.4736 10.5225C18.3855 11.976 17.9364 13.327 17.2109 14.4912L13.9062 14.4717L12.7275 12.9658L13.9053 9.39258L15.9453 8.71191ZM8.11524 13.5801H11.9385L13.0615 15.0156L11.9316 18.2725C11.3104 18.4164 10.6657 18.5 10 18.5C9.31418 18.5 8.651 18.4103 8.0127 18.2578L6.91895 15.1074L8.11524 13.5801ZM5.9873 15.4717L6.82422 17.8828C5.52948 17.3623 4.39492 16.5351 3.50879 15.4873L5.9873 15.4717ZM13.9619 15.4717L16.4912 15.4873C15.5919 16.5507 14.436 17.3854 13.1172 17.9043L13.9619 15.4717Z" fill="inherit"/>
    </symbol>
    <symbol id="menu-tipsters" xmlns="http://www.w3.org/2000/svg" viewBox="0 0 24 16" fill="inherit">
        <path d="M12 0.5C9.52148 0.5 7.5 2.52148 7.5 5C7.5 6.44141 8.19727 7.71289 9.25781 8.53906C8.61914 8.79102 8.0332 9.13672 7.49414 9.54687C7.49414 9.52929 7.5 9.51758 7.5 9.5C7.5 7.85352 6.14648 6.5 4.5 6.5C2.85352 6.5 1.5 7.85352 1.5 9.5C1.5 10.3027 1.82812 11.0352 2.34375 11.5742C0.955079 12.3418 0 13.8066 0 15.5H1.5C1.5 13.8359 2.83594 12.5 4.5 12.5C4.7168 12.5 4.92188 12.5234 5.12109 12.5645C4.73438 13.4668 4.5 14.4512 4.5 15.5H6C6 12.6992 7.91016 10.3789 10.5 9.71094V11L12 12.5L13.5 11V9.71094C16.0898 10.3789 18 12.6992 18 15.5H19.5C19.5 14.4629 19.2832 13.4727 18.8965 12.5703C19.0957 12.5293 19.2949 12.5 19.5 12.5C21.1641 12.5 22.5 13.8359 22.5 15.5H24C24 13.8066 23.0449 12.3418 21.6562 11.5742C22.1719 11.0352 22.5 10.3027 22.5 9.5C22.5 7.85352 21.1465 6.5 19.5 6.5C17.8535 6.5 16.5 7.85352 16.5 9.5C16.5 9.51172 16.5 9.52344 16.5 9.53516C15.9668 9.13086 15.3809 8.79102 14.7422 8.53906C15.8027 7.71289 16.5 6.44141 16.5 5C16.5 2.52148 14.4785 0.5 12 0.5ZM12 12.5L10.5 14V15.5H13.5V14L12 12.5ZM12 2C13.6641 2 15 3.33594 15 5C15 6.66406 13.6641 8 12 8C10.3359 8 9 6.66406 9 5C9 3.33594 10.3359 2 12 2ZM4.5 8C5.33789 8 6 8.66211 6 9.5C6 10.3379 5.33789 11 4.5 11C3.66211 11 3 10.3379 3 9.5C3 8.66211 3.66211 8 4.5 8ZM19.5 8C20.3379 8 21 8.66211 21 9.5C21 10.3379 20.3379 11 19.5 11C18.6621 11 18 10.3379 18 9.5C18 8.66211 18.6621 8 19.5 8Z" fill="inherit"/>
    </symbol>
    <symbol id="menu-blog" xmlns="http://www.w3.org/2000/svg" viewBox="0 0 18 18" fill="inherit">
        <path d="M0 0V15C0 16.6465 1.35352 18 3 18H15C16.6465 18 18 16.6465 18 15V4.5H13.5V0H0ZM1.5 1.5H12V15C12 15.5508 12.1641 16.0547 12.4219 16.5H3C2.16211 16.5 1.5 15.8379 1.5 15V1.5ZM3 4.5V6H10.5V4.5H3ZM13.5 6H16.5V15C16.5 15.8379 15.8379 16.5 15 16.5C14.1621 16.5 13.5 15.8379 13.5 15V6ZM3 7.5V9H6V7.5H3ZM7.5 7.5V9H10.5V7.5H7.5ZM3 10.5V12H6V10.5H3ZM7.5 10.5V12H10.5V10.5H7.5ZM3 13.5V15H6V13.5H3ZM7.5 13.5V15H10.5V13.5H7.5Z" fill="inherit"/>
    </symbol>
    <symbol id="menu-i" xmlns="http://www.w3.org/2000/svg" viewBox="0 0 20 20" fill="inherit">
        <path d="M9.99023 0.240234C4.61719 0.240234 0.240234 4.61719 0.240234 9.99023C0.240234 15.3633 4.61719 19.7402 9.99023 19.7402C15.3633 19.7402 19.7402 15.3633 19.7402 9.99023C19.7402 4.61719 15.3633 0.240234 9.99023 0.240234ZM9.99023 1.74023C14.5547 1.74023 18.2402 5.42578 18.2402 9.99023C18.2402 14.5547 14.5547 18.2402 9.99023 18.2402C5.42578 18.2402 1.74023 14.5547 1.74023 9.99023C1.74023 5.42578 5.42578 1.74023 9.99023 1.74023ZM9.24023 4.74023V6.24023H10.7402V4.74023H9.24023ZM9.24023 7.74023V15.2402H10.7402V7.74023H9.24023Z" fill="inherit"/>
    </symbol>
    <symbol id="menu-mail" xmlns="http://www.w3.org/2000/svg" viewBox="0 0 22 17" fill="inherit">
        <path d="M2.75 0C1.51367 0 0.5 1.01367 0.5 2.25V14.25C0.5 15.4863 1.51367 16.5 2.75 16.5H19.25C20.4863 16.5 21.5 15.4863 21.5 14.25V2.25C21.5 1.01367 20.4863 0 19.25 0H2.75ZM2.75 1.5H19.25C19.3027 1.5 19.3438 1.51758 19.3906 1.5293L11 7.33594L2.60938 1.5293C2.65625 1.51758 2.69727 1.5 2.75 1.5ZM2 2.92969L11 9.16406L20 2.92969V14.25C20 14.6719 19.6719 15 19.25 15H2.75C2.32812 15 2 14.6719 2 14.25V2.92969Z" fill="inherit"/>
    </symbol>
    <symbol id="star" xmlns="http://www.w3.org/2000/svg" viewBox="0 0 13 12" fill="inherit">
        <path d="M5.29569 4.06066L6.5 1.26413L7.70431 4.06066C7.8346 4.36322 8.11979 4.57041 8.4478 4.60084L11.4796 4.88203L9.1921 6.89157C8.94462 7.10898 8.83569 7.44423 8.90811 7.76559L9.57756 10.7359L6.9595 9.18134C6.67625 9.01315 6.32375 9.01315 6.0405 9.18134L3.42244 10.7359L4.09189 7.76559C4.16431 7.44423 4.05538 7.10898 3.8079 6.89157L1.5204 4.88203L4.5522 4.60084C4.88021 4.57041 5.1654 4.36322 5.29569 4.06066Z" stroke="#FBA744" fill="inherit"/>
    </symbol>
    <symbol id="banner-arrow" xmlns="http://www.w3.org/2000/svg" viewBox="0 0 11 18" fill="none">
        <path d="M2.16667 16.0846L9.25 9.0013L2.16667 1.91797" stroke="inherit" stroke-width="3.27857" stroke-linecap="round" stroke-linejoin="round"/>
    </symbol>
    <symbol id="verified" xmlns="http://www.w3.org/2000/svg" viewBox="0 0 20 20" fill="none">
        <rect width="20" height="20" rx="10" fill="white"/>
        <path d="M12.6445 2.61916C12.9224 2.47131 13.2661 2.6139 13.3577 2.91503L14.1512 5.52319C14.1997 5.68249 14.3243 5.80721 14.4835 5.85584L17.0909 6.65215C17.3919 6.74409 17.5341 7.08797 17.386 7.36568L16.1028 9.77105C16.0245 9.91796 16.0244 10.0942 16.1026 10.2412L17.3832 12.648C17.531 12.9258 17.3884 13.2696 17.0873 13.3612L14.4791 14.1547C14.3198 14.2032 14.1951 14.3278 14.1465 14.487L13.3502 17.0943C13.2582 17.3954 12.9144 17.5376 12.6366 17.3894L10.2313 16.1063C10.0844 16.028 9.90808 16.0279 9.76108 16.1061L7.35435 17.3866C7.07648 17.5345 6.73276 17.3919 6.64114 17.0908L5.8476 14.4826C5.79913 14.3233 5.67455 14.1986 5.5153 14.15L2.90798 13.3537C2.60695 13.2617 2.46473 12.9178 2.61287 12.6401L3.896 10.2348C3.97437 10.0878 3.97447 9.91156 3.89625 9.76457L2.61568 7.35784C2.46783 7.07997 2.61042 6.73624 2.91154 6.64463L5.5197 5.85109C5.679 5.80262 5.80372 5.67803 5.85236 5.51878L6.64867 2.91147C6.74061 2.61044 7.08448 2.46821 7.3622 2.61636L9.76756 3.89949C9.91448 3.97786 10.0908 3.97795 10.2378 3.89974L12.6445 2.61916Z" fill="#2082E2"/>
        <path d="M7.04883 10.1616L8.89576 12.0086L12.959 7.94531" stroke="white" stroke-width="1.33333" stroke-linecap="square"/>
    </symbol>
    <symbol id="like" xmlns="http://www.w3.org/2000/svg" viewBox="0 0 39 39" fill="inherit">
        <path d="M8.52572 15.0996H4.04578C3.42729 15.0996 2.92578 15.601 2.92578 16.2196V34.1391C2.92578 34.7576 3.42721 35.2591 4.04578 35.2591H8.52565C9.14414 35.2591 9.64565 34.7576 9.64565 34.1391V16.2195C9.64565 15.601 9.14429 15.0996 8.52572 15.0996Z" fill="inherit"/>
        <path d="M36.5057 18.0689C36.3081 16.3315 34.6852 15.1001 32.9367 15.1001H24.205C24.9471 13.7714 25.3454 10.0132 25.3277 8.47802C25.2984 5.93681 23.194 3.90039 20.6527 3.90039H19.7285C19.1095 3.90039 18.6085 4.4013 18.6085 5.02039C18.6085 7.61026 17.6001 12.2849 15.6982 14.1869C14.418 15.467 13.3237 15.9309 11.8887 16.6481V33.4532C14.0857 34.1855 16.8752 35.2596 21.1269 35.2596H28.4532C30.8672 35.2596 32.7473 33.0239 31.8119 30.6617C33.237 30.2734 34.288 28.9664 34.288 27.4198C34.288 26.9834 34.2038 26.5656 34.0518 26.1817C36.4535 25.5274 37.3375 22.562 35.6706 20.7C36.283 20.0158 36.6207 19.08 36.5057 18.0689Z" fill="inherit"/>
    </symbol>
    <symbol id="arrow" xmlns="http://www.w3.org/2000/svg" viewBox="0 0 12 8" fill="none">
        <path d="M11.0508 1.47656L6.00198 6.52541L0.953125 1.47656" stroke="inherit" stroke-width="1.75"/>
    </symbol>
    <symbol id="check" xmlns="http://www.w3.org/2000/svg" viewBox="0 0 16 16" fill="none">
        <path d="M2.68359 8.28911L6.0072 11.6127L13.3191 4.30078" stroke="inherit" stroke-width="1.83736" stroke-linecap="square"/>
    </symbol>
    <symbol id="filter" xmlns="http://www.w3.org/2000/svg" viewBox="0 0 14 15" fill="inherit">
        <path d="M8.08525 13.6788C8.20944 13.6179 8.31411 13.5234 8.38741 13.4061C8.46071 13.2888 8.49971 13.1533 8.5 13.015V9.02501C8.5 8.82851 8.57875 8.63951 8.71975 8.50001L13.3105 3.95951C13.4495 3.82225 13.56 3.65877 13.6354 3.47854C13.7109 3.2983 13.7498 3.1049 13.75 2.90951V0.992514C13.7496 0.894486 13.7299 0.797499 13.692 0.707102C13.654 0.616706 13.5987 0.534677 13.529 0.46571C13.4593 0.396742 13.3768 0.342191 13.286 0.305179C13.1952 0.268167 13.098 0.249421 13 0.250014H1C0.58525 0.250014 0.25 0.581514 0.25 0.992514V2.90951C0.25 3.30326 0.40825 3.68126 0.6895 3.95951L5.28025 8.50001C5.34981 8.56862 5.40505 8.65036 5.44277 8.74048C5.48049 8.8306 5.49995 8.92731 5.5 9.02501V13.7575C5.5 14.3088 6.0865 14.6673 6.58525 14.4205L8.08525 13.6788Z" fill="inherit"/>
    </symbol>
    <symbol id="cashback" xmlns="http://www.w3.org/2000/svg" viewBox="0 0 24 24" fill="none">
        <path fill-rule="evenodd" clip-rule="evenodd" d="M11.057 2.02507C10.6588 2.06172 9.79028 2.23355 9.32689 2.36738C7.02716 3.0315 4.96651 4.55078 3.65074 6.55233C2.19882 8.76091 1.67666 11.4367 2.19599 14.007C2.42095 15.1204 3.00559 16.5413 3.63262 17.4985C4.162 18.3066 4.94306 19.1722 5.70735 19.7976C7.41048 21.1915 9.75352 22.0255 11.9664 22.0255C12.4185 22.0255 13.4339 21.9432 13.4768 21.9031C13.4861 21.8944 13.4276 21.8047 13.3469 21.7036C13.024 21.2994 12.8673 20.6909 12.9553 20.1834C13.0587 19.5875 13.1952 19.3946 14.2622 18.3379C15.2617 17.348 15.4282 17.2235 15.897 17.1151C16.4072 16.9972 17.0733 17.1177 17.4589 17.3976C17.5657 17.475 17.8362 17.7245 18.0601 17.9519C18.284 18.1793 18.4768 18.3654 18.4886 18.3654C18.5612 18.3654 21.3451 15.5024 21.4008 15.3705C21.6829 14.7022 21.9373 13.3753 21.9762 12.3695C22.0401 10.7127 21.701 9.12052 20.9606 7.60177C19.4558 4.51481 16.4687 2.41781 13.0414 2.04236C12.6057 1.99463 11.4934 1.98495 11.057 2.02507ZM12.7258 6.33094L12.7391 7.05872L13.0358 7.16631C13.4362 7.31156 13.7719 7.53507 14.0538 7.84406C14.3546 8.17395 14.5078 8.43877 14.6592 8.89085C14.7797 9.25026 14.8948 10.1195 14.8315 10.1914C14.8134 10.2119 14.3786 10.2227 13.865 10.2155L12.9313 10.2024L12.8954 9.79301C12.8343 9.0962 12.5163 8.63695 12.0952 8.63738C11.847 8.63762 11.6407 8.78403 11.5082 9.05386C11.413 9.24751 11.3934 9.36127 11.3934 9.72077C11.3934 10.4361 11.5846 10.702 12.4748 11.2254C14.0573 12.1557 14.3581 12.4398 14.6747 13.3029C14.8192 13.6966 14.8707 14.4753 14.7854 14.9737C14.6972 15.4882 14.4125 16.0327 14.0612 16.3587C13.7463 16.6508 13.2389 16.9205 12.8246 17.0161L12.5735 17.074L12.5602 17.7317L12.5469 18.3894H12.0663H11.5857L11.5724 17.7339L11.559 17.0783L11.236 16.9993C10.0041 16.6985 9.22885 15.6629 9.14806 14.2101C9.13153 13.9131 9.13884 13.8814 9.22842 13.8593C9.28258 13.846 9.71617 13.8412 10.192 13.8487L11.057 13.8625L11.0915 14.2477C11.166 15.0799 11.4772 15.4758 12.0568 15.4758C12.6567 15.4758 12.9834 14.9524 12.8885 14.1434C12.8129 13.4985 12.468 13.1394 11.416 12.6101C10.0346 11.9152 9.53244 11.2341 9.46338 9.96157C9.40408 8.8685 9.81508 7.97317 10.6093 7.46538C10.8504 7.31122 11.2794 7.13722 11.5737 7.07437L11.7058 7.04611V6.32463V5.60316H12.2092H12.7126L12.7258 6.33094ZM20.5489 19.2081L18.5069 21.2547L17.4488 20.1953C16.8669 19.6126 16.3691 19.1359 16.3425 19.1359C16.316 19.1359 15.9919 19.4394 15.6225 19.8103L14.9508 20.4848L16.7042 22.2424C17.6686 23.2091 18.475 24 18.4962 24C18.5174 24 19.7644 22.7678 21.2674 21.2618L24 18.5236L23.319 17.8425C22.9446 17.4679 22.6275 17.1614 22.6145 17.1614C22.6015 17.1614 21.672 18.0824 20.5489 19.2081Z" fill="black"/>
    </symbol>
    <symbol id="acca" xmlns="http://www.w3.org/2000/svg" viewBox="0 0 24 24" fill="none">
        <path fill-rule="evenodd" clip-rule="evenodd" d="M10.5777 1.60307C11.0805 1.39073 11.6001 1.16908 11.7324 1.11042C11.8647 1.05177 11.9774 1.00207 11.9828 1.00001C11.9883 0.997941 12.995 1.42311 14.2201 1.94479C15.4451 2.46651 16.7073 3.00155 17.0248 3.13382C17.3423 3.26606 18.2408 3.64728 19.0215 3.981C19.8021 4.31469 20.5666 4.64065 20.7204 4.70532L21 4.8229L20.981 8.31781C20.9605 12.085 20.9588 12.1141 20.6834 13.3285C20.2069 15.4298 18.9745 17.5041 17.258 19.0937C15.8044 20.4399 13.9472 21.5237 12.4201 21.9167C12.0243 22.0185 11.9858 22.0208 11.7225 21.957C10.1473 21.5756 8.22266 20.4705 6.73608 19.0937C4.97343 17.4613 3.72919 15.3275 3.26717 13.1447C3.02675 12.009 3.00197 11.5343 3.00096 8.04181L3 4.82203L6.33179 3.40555C8.16425 2.62648 10.0749 1.81536 10.5777 1.60307ZM19.253 8.34919C19.2049 8.32365 18.8961 8.00848 18.5186 7.64885C18.1412 7.28922 17.8219 6.99494 17.809 6.99494C17.796 6.99494 16.1455 8.56051 14.1411 10.474L10.4967 13.9531L7.19992 10.8068L5.77632 12.1681L8.11767 14.4042C9.4054 15.634 10.5318 16.6402 10.562 16.6402C10.5817 16.6402 19.253 8.41381 19.253 8.34919Z" fill="black"/>
    </symbol>
    <symbol id="combined" xmlns="http://www.w3.org/2000/svg" viewBox="0 0 24 24" fill="none">
        <path fill-rule="evenodd" clip-rule="evenodd" d="M6.01528 3.9712C2.74521 5.60518 0.0634703 6.96081 0.0558134 6.98368C0.0481565 7.00655 1.14598 7.5757 2.49533 8.24849C4.11146 9.05429 4.93397 9.4887 4.90546 9.52147C4.88167 9.54886 3.76815 10.1118 2.43094 10.7725C1.09378 11.4332 -0.000144455 11.9846 1.43079e-08 11.9978C0.000144484 12.011 1.09412 12.5623 2.43109 13.223C3.76805 13.8837 4.88143 14.4467 4.90532 14.4741C4.93397 14.5068 4.11319 14.9404 2.49542 15.747C1.14612 16.4197 0.042137 16.9864 0.042137 17.0062C0.042137 17.026 2.7298 18.3828 6.01475 20.0212L11.9874 23L17.9936 20.0035L23.9998 17.007L21.4984 15.7589C19.0744 14.5494 19.0007 14.5086 19.1148 14.4393C19.1795 14.3999 20.2988 13.8399 21.6021 13.1948C22.9054 12.5496 23.9719 12.011 23.9721 11.9978C23.9723 11.9846 22.8675 11.4248 21.5169 10.7539C20.1664 10.0829 19.0527 9.51989 19.042 9.50264C19.0314 9.48544 20.1425 8.91273 21.5113 8.22999L24 6.98868L18.0045 3.99417C14.707 2.34722 11.9982 0.999808 11.985 1C11.9717 1.00019 9.28535 2.33722 6.01528 3.9712ZM9.36032 11.6732L11.985 12.9824L14.6096 11.6732C16.0532 10.9532 17.2671 10.3641 17.3073 10.3641C17.3867 10.3641 20.6041 11.9583 20.6046 11.9979C20.6048 12.0112 18.665 12.9898 16.2939 14.1726L11.9828 16.3232L7.69796 14.1824C5.34128 13.0049 3.41309 12.0228 3.41309 11.9998C3.41309 11.9459 6.53999 10.3683 6.65152 10.3659C6.6978 10.3649 7.91674 10.9532 9.36032 11.6732ZM9.35845 16.6727L11.9899 17.9841L14.624 16.6732C16.0728 15.9522 17.2852 15.3621 17.3184 15.3618C17.3813 15.3612 20.5023 16.9207 20.5636 16.9833C20.5828 17.0029 18.6616 17.9901 16.2942 19.1771L11.9899 21.3352L7.68173 19.1771C5.31229 17.9901 3.38415 17.0082 3.39701 16.9949C3.45932 16.9308 6.57784 15.3656 6.64719 15.3636C6.69111 15.3623 7.91115 15.9514 9.35845 16.6727Z" fill="black"/>
    </symbol>
    <symbol id="timer" xmlns="http://www.w3.org/2000/svg" viewBox="0 0 24 24" fill="none">
        <g clip-path="url(#clip0_13903_108041)"><rect width="24" height="24" fill="url(#pattern0)"/><path fill-rule="evenodd" clip-rule="evenodd" d="M8.99241 0.99423V1.97869H11.9658H14.9391V0.99423V0.00976562H11.9658H8.99241V0.99423ZM10.9963 3.55105L10.9826 4.06696L10.3832 4.16958C9.25718 4.3623 8.49859 4.60635 7.50559 5.09522C4.64388 6.50411 2.64627 9.22599 2.10958 12.4476C2.00378 13.0829 1.96642 14.3264 2.0339 14.9688C2.16271 16.1956 2.49774 17.3669 3.02772 18.4434C4.20368 20.8318 6.25788 22.6304 8.76974 23.4709C11.3452 24.3327 13.9424 24.1594 16.4018 22.9616C17.4125 22.4693 18.2007 21.8962 19.05 21.0359C19.8971 20.1777 20.3822 19.4974 20.9104 18.4265C22.4654 15.2739 22.2403 11.5026 20.3213 8.5578C19.2118 6.85506 17.5855 5.51912 15.7089 4.76862C15.0189 4.49268 14.0496 4.22817 13.4041 4.13967C13.1816 4.10917 12.9827 4.07378 12.9622 4.0611C12.9417 4.04838 12.9249 3.81239 12.9249 3.5366V3.03519H11.9674H11.0099L10.9963 3.55105ZM19.0739 4.1511L18.3914 4.83475L19.7462 6.19206C20.4913 6.93857 21.123 7.54932 21.1499 7.54932C21.1768 7.54932 21.5004 7.24668 21.8691 6.87686L22.5394 6.20435L21.1734 4.8359C20.4221 4.08319 19.7959 3.4674 19.782 3.4674C19.768 3.4674 19.4494 3.77508 19.0739 4.1511ZM13.0688 6.08271C15.1016 6.35807 16.8294 7.31877 18.1678 8.91797C18.975 9.88255 19.5974 11.2474 19.8391 12.583C19.9595 13.2485 19.9833 14.5923 19.8855 15.2089C19.7405 16.1231 19.4021 17.1415 18.9915 17.8991C18.3504 19.082 17.2328 20.2396 16.0803 20.9146C13.296 22.545 9.69944 22.3517 7.1319 20.4336C6.62308 20.0535 5.81634 19.2269 5.45201 18.7124C3.41464 15.8353 3.47789 11.9494 5.6083 9.11006C5.92899 8.68266 6.70427 7.91891 7.17003 7.57151C8.26072 6.75801 9.71172 6.19513 11.1025 6.04597C11.5257 6.00059 12.6126 6.02091 13.0688 6.08271ZM11.9178 6.49686C11.9178 6.55194 11.7906 7.44334 11.635 8.47779C11.4795 9.51225 11.2909 10.7772 11.2158 11.2888L11.0793 12.2189L10.886 12.3521C10.5943 12.553 10.2936 12.9031 10.1511 13.2076C10.0372 13.4509 10.0235 13.5367 10.0235 14.0084C10.0235 14.4827 10.0368 14.5651 10.1538 14.8151C10.5888 15.7447 11.594 16.2042 12.5447 15.9079C13.1028 15.7339 13.5217 15.362 13.7793 14.8116C13.8945 14.5655 13.908 14.4812 13.908 14.0084C13.908 13.5367 13.8944 13.4509 13.7805 13.2076C13.6379 12.9031 13.3372 12.553 13.0455 12.3521L12.8522 12.2189L12.716 11.2888C12.6411 10.7772 12.5195 9.95886 12.4456 9.47023C12.3718 8.9816 12.239 8.0902 12.1505 7.48934C12.0621 6.88848 11.9735 6.39688 11.9538 6.39683C11.934 6.39678 11.9178 6.44183 11.9178 6.49686Z" fill="black"/></g>
    </symbol>
    <symbol id="timer-small" xmlns="http://www.w3.org/2000/svg" viewBox="0 0 15 15" fill="inherit">
        <path d="M13.8456 8.90625C13.8456 7.70508 13.449 6.5625 12.8083 5.5957H12.8388L13.7236 4.7168C13.8761 4.59961 13.8761 4.36523 13.7236 4.21875L12.8693 3.39844C12.7167 3.25195 12.4727 3.25195 12.3506 3.39844L11.4963 4.21875C10.642 3.54492 9.60469 3.07617 8.47581 2.90039V1.875H9.3301C9.51316 1.875 9.69622 1.72852 9.69622 1.52344V0.351562C9.69622 0.175781 9.51316 0 9.3301 0H5.66885C5.45528 0 5.30273 0.175781 5.30273 0.351562V1.52344C5.30273 1.72852 5.45528 1.875 5.66885 1.875H6.52314V2.90039C3.47211 3.33984 1.15332 5.85938 1.15332 8.90625C1.15332 12.2754 3.99078 15 7.49947 15C10.9777 15 13.8456 12.2754 13.8456 8.90625ZM8.47581 9.96094C8.47581 10.166 8.29274 10.3125 8.10968 10.3125H6.88927C6.67569 10.3125 6.52314 10.166 6.52314 9.96094V5.53711C6.52314 5.33203 6.67569 5.18555 6.88927 5.18555H8.10968C8.29274 5.18555 8.47581 5.33203 8.47581 5.53711V9.96094Z" fill="inherit"/>
    </symbol>
    <symbol id="plus" xmlns="http://www.w3.org/2000/svg" viewBox="0 0 12 13" fill="none">
        <path d="M7.23179 7.73412V12.5H4.77956V7.73412H0V5.2545H4.77956V0.5H7.23179V5.2545H12V7.73412H7.23179Z" fill="#00B073"/>
    </symbol>
    <symbol id="minus" xmlns="http://www.w3.org/2000/svg" viewBox="0 0 12 3" fill="none">
      <path d="M0 2.73939H4.77956H7.23179H12V0.259766H7.23179H4.77956H0V2.73939Z" fill="#F32657"/>
    </symbol>
    <symbol id="shape" viewBox="0 0 7 11" fill="none" xmlns="http://www.w3.org/2000/svg">
      <path d="M1.33333 9.66732L5.5 5.50065L1.33333 1.33398" stroke="white" stroke-width="1.92857" stroke-linecap="round" stroke-linejoin="round"/>
    </symbol>
    <symbol id="check2" xmlns="http://www.w3.org/2000/svg" viewBox="0 0 10 10" fill="none">
      <path d="M1.90039 5.16768L3.83944 7.10672L8.10534 2.84082" stroke="white" stroke-width="1.5" stroke-linecap="square"/>
    </symbol>
    <symbol id="close" viewBox="0 0 16 17" fill="none" xmlns="http://www.w3.org/2000/svg">
      <path d="M13.2924 3.20703L2.70703 13.7924" stroke="#737C88" stroke-width="2.5"/>
      <path d="M2.68555 3.18555L13.3137 13.8137" stroke="#737C88" stroke-width="2.5"/>
    </symbol>
    <symbol id="true" xmlns="http://www.w3.org/2000/svg" viewBox="0 0 10 10" fill="none">
      <path d="M1.90039 5.16768L3.83944 7.10672L8.10534 2.84082" stroke="white" stroke-width="1.5" stroke-linecap="square"/>
    </symbol>
    <symbol id="false" viewBox="0 0 12 13" fill="none" xmlns="http://www.w3.org/2000/svg">
      <path d="M10.0663 2.43359L1.93359 10.5663" stroke="white" stroke-width="1.30126"/>
      <path d="M1.93359 2.43359L10.0663 10.5663" stroke="white" stroke-width="1.30126"/>
    </symbol>
    <symbol id="close-modal" viewBox="0 0 10 10" fill="none" xmlns="http://www.w3.org/2000/svg">
      <path opacity="0.8" fill-rule="evenodd" clip-rule="evenodd" d="M9.46565 0.428541C9.08767 0.0505569 8.47478 0.0506075 8.09674 0.428654L4.9043 3.62109L1.77229 0.489087C1.39431 0.111104 0.781424 0.111154 0.403378 0.4892C0.0253316 0.867246 0.025281 1.48013 0.403265 1.85811L3.53527 4.99012L0.342185 8.18321C-0.0358619 8.56125 -0.0359124 9.17414 0.342071 9.55212C0.720055 9.9301 1.33294 9.93005 1.71098 9.55201L4.90407 6.35892L8.03539 9.49024C8.41337 9.86822 9.02626 9.86817 9.4043 9.49013C9.78235 9.11208 9.7824 8.4992 9.40442 8.12121L6.2731 4.98989L9.46554 1.79745C9.84358 1.41941 9.84363 0.806524 9.46565 0.428541Z" fill="#737C88"/>
    </symbol>
    <symbol id="left" viewBox="0 0 8 12" fill="none" xmlns="http://www.w3.org/2000/svg">
      <path d="M6.52441 11.0488L1.4756 5.99998L6.52441 0.951172" stroke="#353530" stroke-width="1.74999"/>
    </symbol>
</svg>
